# xmcd
#
# Track frame offsets: 
#        150
#        3347
#        21635
#        27270
#        39882
#        57920
#        74396
#        79123
#        88612
#        110063
#        122849
#        135945
#        157694
#        161232
#        179670
#
# Disc length: 2783 seconds
#
# Revision: 14
# Processed by: cddbd v1.5.2PL0 Copyright (c) Steve Scherf et al.
# Submitted via: ExactAudioCopyFreeDBPlugin 1.0
#
DISCID=c00add0f
DTITLE=Various Artist - Kill Bill Vol. 2 (Original Soundtrack)
DYEAR=2004
DGENRE=Soundtrack
TTITLE0=Uma Thurman - A Few Words From The Bride
TTITLE1=Shivaree - Goodnight Moon
TTITLE2=Ennio Morricone - Il Tramonto
TTITLE3=Charlie Feathers - Can't Hardly Stand It
TTITLE4=Lole Y Manuel - Tu Mirá (Edit)
TTITLE5=Luis Bacalov - Summertime Killer
TTITLE6=Alan Reeves, Phil Steele and Philip Brigham - The Chase
TTITLE7=David Carradine and Uma Thurman - The Legend Of Pai Mei
TTITLE8=Ennio Morricone - L'Arena
TTITLE9=Johnny Cash - A Satisfied Mind
TTITLE10=Ennio Morricone - A Silhouette Of Doom
TTITLE11=Malcolm McLaren - About Her
TTITLE12=David Carradine and Uma Thurman - Truly And Utterly Bill
TTITLE13=Chingon - Malaguena Salerosa
TTITLE14=Meiko Kaji - Urami Bushi
EXTD=The RZA! YEAR: 2004
EXTT0=
EXTT1=
EXTT2=
EXTT3=
EXTT4=
EXTT5=
EXTT6=
EXTT7=
EXTT8=
EXTT9=
EXTT10=
EXTT11=
EXTT12=
EXTT13=
EXTT14=
PLAYORDER=
